<?xml version="1.0" encoding="utf-8"?>
<!-- Generator: Adobe Illustrator 15.0.0, SVG Export Plug-In . SVG Version: 6.00 Build 0)  -->
<!DOCTYPE svg PUBLIC "-//W3C//DTD SVG 1.1//EN" "http://www.w3.org/Graphics/SVG/1.1/DTD/svg11.dtd">
<svg version="1.1" id="Layer_1" xmlns="http://www.w3.org/2000/svg" xmlns:xlink="http://www.w3.org/1999/xlink" x="0px" y="0px"
	 width="35px" height="35px" viewBox="0 0 35 35" enable-background="new 0 0 35 35" xml:space="preserve">
<path fill="#FFFFFF" d="M17.5,1.257c-8.971,0-16.242,7.273-16.242,16.244S8.529,33.743,17.5,33.743s16.242-7.271,16.242-16.242
	S26.471,1.257,17.5,1.257z M21.801,17.681H18.25V27.96h-3.619V17.681h-2.512v-3.422h2.512c0,0,0-1.402,0-2.924
	c0-2.297,1.486-4.406,4.906-4.406c1.385,0,2.408,0.135,2.408,0.135l-0.08,3.193c0,0-1.045-0.01-2.184-0.01
	c-1.234,0-1.432,0.568-1.432,1.514c0,0.14,0,0.171,0,0.156c0,0.259,0,0.894,0,2.342h3.713L21.801,17.681z"/>
</svg>
