<svg id="Layer_1" data-name="Layer 1" xmlns="http://www.w3.org/2000/svg" viewBox="0 0 32.48 32.49"><defs><style>.cls-1{fill:#fff;}</style></defs><title>sa-social-linkedin-white</title><path class="cls-1" d="M17.5,1.26A16.24,16.24,0,1,0,33.74,17.5,16.24,16.24,0,0,0,17.5,1.26ZM12.28,26.89H8.35V14.27h3.92V26.89Zm-2-14.34a2.27,2.27,0,1,1,2.27-2.27A2.27,2.27,0,0,1,10.31,12.55ZM27,26.89H23V20.75c0-1.46,0-3.35-2-3.35S18.65,19,18.65,20.65v6.24H14.74V14.27h3.76V16h0.05a4.12,4.12,0,0,1,3.71-2c4,0,4.7,2.61,4.7,6v6.92Z" transform="translate(-1.26 -1.26)"/></svg>