<?xml version="1.0" encoding="utf-8"?>
<!-- Generator: Adobe Illustrator 15.0.0, SVG Export Plug-In . SVG Version: 6.00 Build 0)  -->
<!DOCTYPE svg PUBLIC "-//W3C//DTD SVG 1.1//EN" "http://www.w3.org/Graphics/SVG/1.1/DTD/svg11.dtd">
<svg version="1.1" id="Layer_1" xmlns="http://www.w3.org/2000/svg" xmlns:xlink="http://www.w3.org/1999/xlink" x="0px" y="0px"
	 width="35px" height="35px" viewBox="0 0 35 35" enable-background="new 0 0 35 35" xml:space="preserve">
<path fill="#FFFFFF" d="M17.501,1.257C8.53,1.257,1.257,8.53,1.257,17.501c0,8.972,7.273,16.243,16.244,16.243
	s16.242-7.271,16.242-16.243C33.743,8.53,26.472,1.257,17.501,1.257z M25.606,14.216c0.092,1.805-0.295,3.346-0.826,4.677
	c-0.525,1.311-1.25,2.447-2.119,3.396c-1.73,1.885-4.207,3.312-7.59,3.471c-0.32,0-0.641,0-0.961,0
	c-2.232-0.133-4.016-0.795-5.412-1.713c2.322,0.217,4.133-0.488,5.457-1.441c0.039-0.029,0.096-0.074,0.135-0.107
	c0.02-0.018,0.109-0.057,0.061-0.104c-1.949-0.121-3.041-1.18-3.578-2.662c0.408,0.092,0.949,0.068,1.354,0
	c0.139-0.021,0.289-0.018,0.375-0.104c-1.818-0.455-2.996-1.641-3.111-3.819c0.486,0.262,1.047,0.447,1.76,0.482
	c-0.338-0.273-0.672-0.553-0.947-0.918c-0.268-0.354-0.475-0.76-0.617-1.232c-0.301-1.004-0.143-2.293,0.346-3.037
	c1.861,2.168,4.268,3.791,8.025,4.061c-0.312-1.41,0.168-2.615,0.797-3.367c0.656-0.785,1.564-1.377,2.932-1.398
	c0.014-0.006,0.027-0.014,0.029-0.031c0.012,0,0.02,0,0.031,0v0.016c0.98,0.025,1.725,0.326,2.328,0.781
	c0.16,0.121,0.416,0.428,0.541,0.436c0.184,0.014,0.498-0.109,0.678-0.164c0.633-0.193,1.23-0.473,1.729-0.736
	c-0.33,0.943-0.934,1.613-1.699,2.119c0.834-0.094,1.545-0.309,2.193-0.586C27.003,13.019,26.339,13.649,25.606,14.216z"/>
</svg>
